<mxfile host="app.diagrams.net" agent="Mozilla/5.0 (Windows NT 10.0; Win64; x64) AppleWebKit/537.36 (KHTML, like Gecko) Chrome/136.0.0.0 Safari/537.36" version="27.0.6">
  <diagram name="PÃ¡gina-1" id="bTDx3S-F5lFm-VV623Ia">
    <mxGraphModel dx="1426" dy="751" grid="0" gridSize="10" guides="1" tooltips="1" connect="1" arrows="1" fold="1" page="1" pageScale="1" pageWidth="827" pageHeight="1169" math="0" shadow="0">
      <root>
        <mxCell id="0" />
        <mxCell id="1" parent="0" />
        <mxCell id="gsKsHhmXY5Ck95mfsehr-5" value="" style="edgeStyle=orthogonalEdgeStyle;rounded=0;orthogonalLoop=1;jettySize=auto;html=1;" edge="1" parent="1" source="gsKsHhmXY5Ck95mfsehr-1" target="gsKsHhmXY5Ck95mfsehr-4">
          <mxGeometry relative="1" as="geometry" />
        </mxCell>
        <mxCell id="gsKsHhmXY5Ck95mfsehr-6" value="" style="edgeStyle=orthogonalEdgeStyle;rounded=0;orthogonalLoop=1;jettySize=auto;html=1;" edge="1" parent="1" source="gsKsHhmXY5Ck95mfsehr-1" target="gsKsHhmXY5Ck95mfsehr-4">
          <mxGeometry relative="1" as="geometry" />
        </mxCell>
        <mxCell id="gsKsHhmXY5Ck95mfsehr-8" style="edgeStyle=orthogonalEdgeStyle;rounded=0;orthogonalLoop=1;jettySize=auto;html=1;entryX=0;entryY=0.5;entryDx=0;entryDy=0;" edge="1" parent="1" source="gsKsHhmXY5Ck95mfsehr-1" target="gsKsHhmXY5Ck95mfsehr-7">
          <mxGeometry relative="1" as="geometry" />
        </mxCell>
        <mxCell id="gsKsHhmXY5Ck95mfsehr-1" value="Panel" style="rounded=0;whiteSpace=wrap;html=1;" vertex="1" parent="1">
          <mxGeometry x="59" y="74" width="126" height="30" as="geometry" />
        </mxCell>
        <mxCell id="gsKsHhmXY5Ck95mfsehr-14" value="" style="edgeStyle=orthogonalEdgeStyle;rounded=0;orthogonalLoop=1;jettySize=auto;html=1;" edge="1" parent="1" source="gsKsHhmXY5Ck95mfsehr-4" target="gsKsHhmXY5Ck95mfsehr-13">
          <mxGeometry relative="1" as="geometry" />
        </mxCell>
        <mxCell id="gsKsHhmXY5Ck95mfsehr-4" value="SKU" style="rounded=0;whiteSpace=wrap;html=1;" vertex="1" parent="1">
          <mxGeometry x="270" y="48" width="126" height="30" as="geometry" />
        </mxCell>
        <mxCell id="gsKsHhmXY5Ck95mfsehr-12" value="" style="edgeStyle=orthogonalEdgeStyle;rounded=0;orthogonalLoop=1;jettySize=auto;html=1;" edge="1" parent="1" source="gsKsHhmXY5Ck95mfsehr-7" target="gsKsHhmXY5Ck95mfsehr-11">
          <mxGeometry relative="1" as="geometry" />
        </mxCell>
        <mxCell id="gsKsHhmXY5Ck95mfsehr-7" value="GEC" style="rounded=0;whiteSpace=wrap;html=1;" vertex="1" parent="1">
          <mxGeometry x="270" y="104" width="126" height="30" as="geometry" />
        </mxCell>
        <mxCell id="gsKsHhmXY5Ck95mfsehr-11" value="Tabla XYZ SAP" style="rounded=0;whiteSpace=wrap;html=1;" vertex="1" parent="1">
          <mxGeometry x="476" y="104" width="126" height="30" as="geometry" />
        </mxCell>
        <mxCell id="gsKsHhmXY5Ck95mfsehr-13" value="Tabla Materiales SAP" style="rounded=0;whiteSpace=wrap;html=1;" vertex="1" parent="1">
          <mxGeometry x="476" y="48" width="126" height="30" as="geometry" />
        </mxCell>
      </root>
    </mxGraphModel>
  </diagram>
</mxfile>
